<svg xmlns="http://www.w3.org/2000/svg" xmlns:xlink="http://www.w3.org/1999/xlink" width="500" zoomAndPan="magnify" viewBox="0 0 375 374.999991" height="500" preserveAspectRatio="xMidYMid meet" version="1.0"><defs><g/><clipPath id="685ffc21ab"><path d="M 147 157 L 245.078125 157 L 245.078125 212.496094 L 147 212.496094 Z M 147 157 " clip-rule="nonzero"/></clipPath><clipPath id="10ad32d02d"><path d="M 129.578125 96.996094 L 245 96.996094 L 245 212.496094 L 129.578125 212.496094 Z M 129.578125 96.996094 " clip-rule="nonzero"/></clipPath><clipPath id="eacefc8935"><path d="M 129.578125 96.996094 L 182 96.996094 L 182 149 L 129.578125 149 Z M 129.578125 96.996094 " clip-rule="nonzero"/></clipPath></defs><g clip-path="url(#685ffc21ab)"><path fill="#53afbe" d="M 147.945312 212.496094 L 245.078125 212.496094 L 245.078125 195.519531 L 202.609375 157.832031 Z M 147.945312 212.496094 " fill-opacity="1" fill-rule="nonzero"/></g><g clip-path="url(#10ad32d02d)"><path fill="#fb5e33" d="M 244.960938 96.996094 L 199.570312 96.996094 L 129.578125 166.988281 L 129.578125 212.378906 Z M 244.960938 96.996094 " fill-opacity="1" fill-rule="nonzero"/></g><g clip-path="url(#eacefc8935)"><path fill="#feb449" d="M 181.089844 96.996094 L 129.578125 96.996094 L 129.578125 148.507812 Z M 181.089844 96.996094 " fill-opacity="1" fill-rule="nonzero"/></g><g fill="#ffffff" fill-opacity="1"><g transform="translate(80.534128, 252.561341)"><g><path d="M 6.5625 0 L 2.609375 0 L 2.609375 -20.046875 L 6.5625 -20.046875 L 6.5625 -11.859375 L 7 -11.859375 L 13.703125 -20.046875 L 17.75 -20.046875 L 17.75 -19.703125 L 10.375 -10.578125 L 18.515625 -0.34375 L 18.515625 0 L 14.046875 0 L 7 -8.65625 L 6.5625 -8.65625 Z M 6.5625 0 "/></g></g></g><g fill="#ffffff" fill-opacity="1"><g transform="translate(104.270295, 252.561341)"><g><path d="M 10.921875 0.28125 C 9.085938 0.28125 7.46875 -0.0859375 6.0625 -0.828125 C 4.664062 -1.578125 3.566406 -2.722656 2.765625 -4.265625 C 1.972656 -5.804688 1.578125 -7.722656 1.578125 -10.015625 C 1.578125 -12.316406 1.972656 -14.234375 2.765625 -15.765625 C 3.566406 -17.304688 4.664062 -18.453125 6.0625 -19.203125 C 7.46875 -19.953125 9.085938 -20.328125 10.921875 -20.328125 C 12.765625 -20.328125 14.382812 -19.953125 15.78125 -19.203125 C 17.175781 -18.460938 18.269531 -17.320312 19.0625 -15.78125 C 19.851562 -14.238281 20.25 -12.316406 20.25 -10.015625 C 20.25 -7.722656 19.851562 -5.804688 19.0625 -4.265625 C 18.269531 -2.722656 17.175781 -1.578125 15.78125 -0.828125 C 14.382812 -0.0859375 12.765625 0.28125 10.921875 0.28125 Z M 10.921875 -3.15625 C 12.628906 -3.15625 13.929688 -3.703125 14.828125 -4.796875 C 15.722656 -5.890625 16.171875 -7.628906 16.171875 -10.015625 C 16.171875 -12.410156 15.722656 -14.15625 14.828125 -15.25 C 13.929688 -16.351562 12.628906 -16.90625 10.921875 -16.90625 C 9.210938 -16.90625 7.90625 -16.351562 7 -15.25 C 6.101562 -14.15625 5.65625 -12.410156 5.65625 -10.015625 C 5.65625 -7.628906 6.101562 -5.890625 7 -4.796875 C 7.90625 -3.703125 9.210938 -3.15625 10.921875 -3.15625 Z M 10.921875 -3.15625 "/></g></g></g><g fill="#ffffff" fill-opacity="1"><g transform="translate(131.322902, 252.561341)"><g><path d="M 6.4375 0 L 2.609375 0 L 2.609375 -20.046875 L 7.140625 -20.046875 L 15.1875 -7.125 L 15.546875 -7.1875 L 15.546875 -20.046875 L 19.359375 -20.046875 L 19.359375 0 L 15.296875 0 L 6.78125 -13.796875 L 6.4375 -13.734375 Z M 6.4375 0 "/></g></g></g><g fill="#ffffff" fill-opacity="1"><g transform="translate(158.52625, 252.561341)"><g><path d="M 15.3125 -20.046875 L 15.3125 -16.71875 L 6.5625 -16.71875 L 6.5625 -11.421875 L 14.5 -11.421875 L 14.5 -8.140625 L 6.5625 -8.140625 L 6.5625 0 L 2.609375 0 L 2.609375 -20.046875 Z M 15.3125 -20.046875 "/></g></g></g><g fill="#ffffff" fill-opacity="1"><g transform="translate(179.946384, 252.561341)"><g><path d="M 6.5625 0 L 2.609375 0 L 2.609375 -20.046875 L 6.5625 -20.046875 Z M 6.5625 0 "/></g></g></g><g fill="#ffffff" fill-opacity="1"><g transform="translate(194.349917, 252.561341)"><g><path d="M 19.234375 0 L 15.0625 0 L 13.5625 -4.625 L 5.875 -4.625 L 4.375 0 L 0.296875 0 L 7.21875 -20.046875 L 12.3125 -20.046875 Z M 9.53125 -15.859375 L 6.953125 -7.953125 L 12.46875 -7.953125 L 9.875 -15.859375 Z M 9.53125 -15.859375 "/></g></g></g><g fill="#ffffff" fill-opacity="1"><g transform="translate(219.100201, 252.561341)"><g><path d="M 6.234375 0 L 2.609375 0 L 2.609375 -20.046875 L 7.78125 -20.046875 L 12.859375 -5.3125 L 13.140625 -5.3125 L 18.1875 -20.046875 L 23.25 -20.046875 L 23.25 0 L 19.5 0 L 19.5 -13.25 L 19.15625 -13.296875 L 14.515625 0 L 11.21875 0 L 6.578125 -13.296875 L 6.234375 -13.25 Z M 6.234375 0 "/></g></g></g><g fill="#ffffff" fill-opacity="1"><g transform="translate(250.19557, 252.561341)"><g><path d="M 10.921875 0.28125 C 9.085938 0.28125 7.46875 -0.0859375 6.0625 -0.828125 C 4.664062 -1.578125 3.566406 -2.722656 2.765625 -4.265625 C 1.972656 -5.804688 1.578125 -7.722656 1.578125 -10.015625 C 1.578125 -12.316406 1.972656 -14.234375 2.765625 -15.765625 C 3.566406 -17.304688 4.664062 -18.453125 6.0625 -19.203125 C 7.46875 -19.953125 9.085938 -20.328125 10.921875 -20.328125 C 12.765625 -20.328125 14.382812 -19.953125 15.78125 -19.203125 C 17.175781 -18.460938 18.269531 -17.320312 19.0625 -15.78125 C 19.851562 -14.238281 20.25 -12.316406 20.25 -10.015625 C 20.25 -7.722656 19.851562 -5.804688 19.0625 -4.265625 C 18.269531 -2.722656 17.175781 -1.578125 15.78125 -0.828125 C 14.382812 -0.0859375 12.765625 0.28125 10.921875 0.28125 Z M 10.921875 -3.15625 C 12.628906 -3.15625 13.929688 -3.703125 14.828125 -4.796875 C 15.722656 -5.890625 16.171875 -7.628906 16.171875 -10.015625 C 16.171875 -12.410156 15.722656 -14.15625 14.828125 -15.25 C 13.929688 -16.351562 12.628906 -16.90625 10.921875 -16.90625 C 9.210938 -16.90625 7.90625 -16.351562 7 -15.25 C 6.101562 -14.15625 5.65625 -12.410156 5.65625 -10.015625 C 5.65625 -7.628906 6.101562 -5.890625 7 -4.796875 C 7.90625 -3.703125 9.210938 -3.15625 10.921875 -3.15625 Z M 10.921875 -3.15625 "/></g></g></g><g fill="#ffffff" fill-opacity="1"><g transform="translate(277.248165, 252.561341)"><g><path d="M 8.890625 0.28125 C 7.492188 0.28125 6.253906 0.113281 5.171875 -0.21875 C 4.085938 -0.5625 3.1875 -1.007812 2.46875 -1.5625 C 1.75 -2.125 1.195312 -2.738281 0.8125 -3.40625 L 2.984375 -6.078125 L 3.328125 -6.078125 C 3.929688 -5.179688 4.695312 -4.46875 5.625 -3.9375 C 6.550781 -3.40625 7.640625 -3.140625 8.890625 -3.140625 C 9.941406 -3.140625 10.738281 -3.363281 11.28125 -3.8125 C 11.820312 -4.257812 12.09375 -4.875 12.09375 -5.65625 C 12.09375 -6.132812 12.003906 -6.53125 11.828125 -6.84375 C 11.660156 -7.164062 11.375 -7.441406 10.96875 -7.671875 C 10.5625 -7.898438 10.019531 -8.097656 9.34375 -8.265625 L 6.765625 -8.859375 C 4.960938 -9.265625 3.617188 -9.945312 2.734375 -10.90625 C 1.847656 -11.863281 1.40625 -13.101562 1.40625 -14.625 C 1.40625 -15.757812 1.6875 -16.753906 2.25 -17.609375 C 2.820312 -18.472656 3.648438 -19.140625 4.734375 -19.609375 C 5.816406 -20.085938 7.113281 -20.328125 8.625 -20.328125 C 10.164062 -20.328125 11.488281 -20.125 12.59375 -19.71875 C 13.695312 -19.3125 14.625 -18.6875 15.375 -17.84375 L 13.421875 -15.15625 L 13.078125 -15.15625 C 12.515625 -15.75 11.863281 -16.195312 11.125 -16.5 C 10.394531 -16.800781 9.5625 -16.953125 8.625 -16.953125 C 7.53125 -16.953125 6.703125 -16.757812 6.140625 -16.375 C 5.578125 -15.988281 5.296875 -15.457031 5.296875 -14.78125 C 5.296875 -14.144531 5.492188 -13.640625 5.890625 -13.265625 C 6.285156 -12.890625 6.972656 -12.597656 7.953125 -12.390625 L 10.578125 -11.84375 C 12.523438 -11.4375 13.9375 -10.738281 14.8125 -9.75 C 15.695312 -8.769531 16.140625 -7.488281 16.140625 -5.90625 C 16.140625 -4.65625 15.867188 -3.566406 15.328125 -2.640625 C 14.785156 -1.710938 13.96875 -0.992188 12.875 -0.484375 C 11.789062 0.0234375 10.460938 0.28125 8.890625 0.28125 Z M 8.890625 0.28125 "/></g></g></g><g fill="#ffffff" fill-opacity="1"><g transform="translate(79.046198, 273.625616)"><g><path d="M 8.84375 -11.578125 L 8.84375 -9.65625 L 3.796875 -9.65625 L 3.796875 -6.59375 L 8.375 -6.59375 L 8.375 -4.703125 L 3.796875 -4.703125 L 3.796875 0 L 1.5 0 L 1.5 -11.578125 Z M 8.84375 -11.578125 "/></g></g></g><g fill="#ffffff" fill-opacity="1"><g transform="translate(101.386983, 273.625616)"><g><path d="M 3.796875 0 L 1.5 0 L 1.5 -11.578125 L 3.796875 -11.578125 Z M 3.796875 0 "/></g></g></g><g fill="#ffffff" fill-opacity="1"><g transform="translate(119.673081, 273.625616)"><g><path d="M 3.71875 0 L 1.5 0 L 1.5 -11.578125 L 4.125 -11.578125 L 8.78125 -4.125 L 8.984375 -4.15625 L 8.984375 -11.578125 L 11.1875 -11.578125 L 11.1875 0 L 8.84375 0 L 3.921875 -7.96875 L 3.71875 -7.9375 Z M 3.71875 0 "/></g></g></g><g fill="#ffffff" fill-opacity="1"><g transform="translate(145.355813, 273.625616)"><g><path d="M 11.109375 0 L 8.703125 0 L 7.828125 -2.671875 L 3.390625 -2.671875 L 2.53125 0 L 0.171875 0 L 4.171875 -11.578125 L 7.109375 -11.578125 Z M 5.5 -9.15625 L 4.015625 -4.59375 L 7.203125 -4.59375 L 5.703125 -9.15625 Z M 5.5 -9.15625 "/></g></g></g><g fill="#ffffff" fill-opacity="1"><g transform="translate(169.620995, 273.625616)"><g><path d="M 3.71875 0 L 1.5 0 L 1.5 -11.578125 L 4.125 -11.578125 L 8.78125 -4.125 L 8.984375 -4.15625 L 8.984375 -11.578125 L 11.1875 -11.578125 L 11.1875 0 L 8.84375 0 L 3.921875 -7.96875 L 3.71875 -7.9375 Z M 3.71875 0 "/></g></g></g><g fill="#ffffff" fill-opacity="1"><g transform="translate(195.303732, 273.625616)"><g><path d="M 6.328125 0.171875 C 5.265625 0.171875 4.320312 -0.0507812 3.5 -0.5 C 2.6875 -0.945312 2.050781 -1.613281 1.59375 -2.5 C 1.132812 -3.382812 0.90625 -4.476562 0.90625 -5.78125 C 0.90625 -7.09375 1.132812 -8.191406 1.59375 -9.078125 C 2.050781 -9.960938 2.6875 -10.628906 3.5 -11.078125 C 4.320312 -11.523438 5.265625 -11.75 6.328125 -11.75 C 7.441406 -11.75 8.382812 -11.53125 9.15625 -11.09375 C 9.9375 -10.65625 10.492188 -9.988281 10.828125 -9.09375 L 9.15625 -8.078125 L 8.96875 -8.078125 C 8.71875 -8.679688 8.378906 -9.113281 7.953125 -9.375 C 7.523438 -9.632812 6.984375 -9.765625 6.328125 -9.765625 C 5.367188 -9.765625 4.617188 -9.445312 4.078125 -8.8125 C 3.535156 -8.175781 3.265625 -7.164062 3.265625 -5.78125 C 3.265625 -4.40625 3.535156 -3.398438 4.078125 -2.765625 C 4.617188 -2.128906 5.367188 -1.8125 6.328125 -1.8125 C 7.828125 -1.8125 8.75 -2.539062 9.09375 -4 L 9.296875 -4 L 10.96875 -3.125 C 10.65625 -2.03125 10.113281 -1.207031 9.34375 -0.65625 C 8.582031 -0.101562 7.578125 0.171875 6.328125 0.171875 Z M 6.328125 0.171875 "/></g></g></g><g fill="#ffffff" fill-opacity="1"><g transform="translate(219.640186, 273.625616)"><g><path d="M 3.796875 0 L 1.5 0 L 1.5 -11.578125 L 3.796875 -11.578125 Z M 3.796875 0 "/></g></g></g><g fill="#ffffff" fill-opacity="1"><g transform="translate(237.926288, 273.625616)"><g><path d="M 3.796875 -5.078125 L 3.796875 -1.921875 L 9.328125 -1.921875 L 9.328125 0 L 1.5 0 L 1.5 -11.578125 L 9.1875 -11.578125 L 9.1875 -9.65625 L 3.796875 -9.65625 L 3.796875 -6.953125 L 8.515625 -6.953125 L 8.515625 -5.078125 Z M 3.796875 -5.078125 "/></g></g></g><g fill="#ffffff" fill-opacity="1"><g transform="translate(260.861024, 273.625616)"><g><path d="M 1.5 0 L 1.5 -11.578125 L 6.15625 -11.578125 C 7.351562 -11.578125 8.253906 -11.300781 8.859375 -10.75 C 9.472656 -10.195312 9.78125 -9.4375 9.78125 -8.46875 C 9.78125 -7.757812 9.601562 -7.179688 9.25 -6.734375 C 8.894531 -6.285156 8.363281 -5.941406 7.65625 -5.703125 L 7.65625 -5.546875 C 8.019531 -5.390625 8.3125 -5.15625 8.53125 -4.84375 C 8.757812 -4.53125 8.972656 -4.066406 9.171875 -3.453125 L 10.328125 0 L 7.96875 0 L 6.84375 -3.453125 C 6.726562 -3.804688 6.597656 -4.078125 6.453125 -4.265625 C 6.304688 -4.460938 6.117188 -4.601562 5.890625 -4.6875 C 5.671875 -4.78125 5.378906 -4.828125 5.015625 -4.828125 L 3.796875 -4.828125 L 3.796875 0 Z M 5.875 -6.640625 C 6.988281 -6.640625 7.546875 -7.15625 7.546875 -8.1875 C 7.546875 -9.238281 6.988281 -9.765625 5.875 -9.765625 L 3.796875 -9.765625 L 3.796875 -6.640625 Z M 5.875 -6.640625 "/></g></g></g><g fill="#ffffff" fill-opacity="1"><g transform="translate(284.666874, 273.625616)"><g><path d="M 11.109375 0 L 8.703125 0 L 7.828125 -2.671875 L 3.390625 -2.671875 L 2.53125 0 L 0.171875 0 L 4.171875 -11.578125 L 7.109375 -11.578125 Z M 5.5 -9.15625 L 4.015625 -4.59375 L 7.203125 -4.59375 L 5.703125 -9.15625 Z M 5.5 -9.15625 "/></g></g></g></svg>