<?xml version="1.0" encoding="UTF-8"?>
<svg width="230px" height="166px" viewBox="0 0 230 166" version="1.1" xmlns="http://www.w3.org/2000/svg" xmlns:xlink="http://www.w3.org/1999/xlink">
    <!-- Generator: Sketch 57.1 (83088) - https://sketch.com -->
    <title>illustration@1x</title>
    <desc>Created with Sketch.</desc>
    <g id="👉--Story-Block" stroke="none" stroke-width="1" fill="none" fill-rule="evenodd">
        <g id="MW-/-Story-Block" transform="translate(-47.000000, -154.000000)" fill-rule="nonzero">
            <g id="illustration" transform="translate(47.000000, 154.000000)">
                <path d="M211.5225,95.3325 L189,105.9975 L208.935,91.08 C205.695,86.0175 202.05,81.225 198.045,76.7475 L100.35,101.0475 L188.595,67.3875 C184.5675,63.8325 180.27,60.57 175.77,57.6225 L26.91,81.6075 C11.0925,101.385 2.4975,125.9325 2.475,151.245 L226.575,151.245 C226.5525,131.6025 221.3775,112.32 211.5225,95.3325 Z" id="Path" fill="#DEE3EF"></path>
                <path d="M163.5975,50.6925 C148.32,43.245 131.535,39.375 114.525,39.3974024 C79.92,39.3974024 48.96,55.1025 28.4175,79.74 C63.6075,72.045 124.875,58.7025 163.5975,50.6925 Z" id="Path" fill="#DEE3EF"></path>
                <circle id="Oval" fill="#DEE3EF" cx="185.625" cy="58.1175" r="3.3525"></circle>
                <circle id="Oval" fill="#DEE3EF" cx="179.415" cy="59.715" r="2.3625"></circle>
                <circle id="Oval" fill="#DEE3EF" cx="26.7075" cy="67.005" r="7.02"></circle>
                <circle id="Oval" fill="#DEE3EF" cx="13.7025" cy="70.38" r="4.9275"></circle>
                <rect id="Rectangle" fill="#322864" x="0" y="150.9975" width="229.5" height="1"></rect>
                <path d="M203.49,150.9975 L185.625,124.4475 C185.625,124.4475 212.6925,133.8975 209.6325,150.9975 L203.49,150.9975 Z" id="Path" fill="#057387"></path>
                <path d="M204.1875,150.9975 L222.0525,124.4475 C222.0525,124.4475 194.985,133.8975 198.045,150.9975 L204.1875,150.9975 Z" id="Path" fill="#01C4B9"></path>
                <path d="M46.8,29.8575 C46.8,28.395 44.7075,27.2025 42.1425,27.2025 C42.0975,27.2025 42.0525,27.2025 41.985,27.2025 C41.22,24.8175 37.5525,23.0175 33.1425,23.0175 C29.385,23.0175 26.19,24.3225 24.8175,26.1675 C23.8275,25.8975 22.7925,25.7625 21.7575,25.785 C17.82,25.785 14.625,27.6075 14.625,29.835 C14.625,31.86 17.2575,33.5475 20.7,33.84 C23.1975,34.29 27.1125,34.5825 31.4775,34.5825 C38.925,34.5825 44.37,33.165 44.505,32.085 C45.8775,31.68 46.8,30.825 46.8,29.8575 Z" id="Path" fill="#DEE3EF"></path>
                <path d="M159.3,30.9825 C159.3,29.52 157.2075,28.3275 154.6425,28.3275 C154.5975,28.3275 154.5525,28.3275 154.485,28.3275 C153.72,25.9425 150.0525,24.1425 145.6425,24.1425 C141.885,24.1425 138.69,25.4475 137.3175,27.2925 C136.3275,27.0225 135.2925,26.8875 134.2575,26.91 C130.32,26.91 127.125,28.7325 127.125,30.96 C127.125,32.985 129.7575,34.6725 133.2,34.965 C135.6975,35.415 139.6125,35.7075 143.9775,35.7075 C151.425,35.7075 156.87,34.29 157.005,33.21 C158.3775,32.805 159.3,31.95 159.3,30.9825 Z" id="Path" fill="#DEE3EF"></path>
                <path d="M222.075,11.97 C222.075,9.405 218.4075,7.335 213.9075,7.335 C213.8175,7.335 213.7275,7.335 213.6375,7.335 C212.265,3.1725 205.83,5.68434189e-14 198.1125,5.68434189e-14 C191.5425,5.68434189e-14 185.895,2.295 183.51,5.535 C181.755,5.0625 179.955,4.8375 178.1325,4.8375 C171.2025,4.8375 165.6,8.0325 165.6,11.97 C165.6,15.5475 170.235,18.495 176.265,19.0125 C180.6525,19.8225 187.4925,20.34 195.21,20.34 C208.2825,20.34 217.845,17.8425 218.0925,15.975 C220.455,15.1425 222.075,13.6575 222.075,11.97 Z" id="Path" fill="#DEE3EF"></path>
                <path d="M11.835,150.795 L11.385,150.795 C11.565,145.8 12.0825,140.805 12.9825,135.8775 C14.9175,125.325 18.1575,118.395 22.59,115.29 L22.8375,115.65 C12.4875,122.9175 11.835,150.5025 11.835,150.795 Z" id="Path" fill="#322864"></path>
                <path d="M17.46,150.6825 L17.01,150.6825 C17.01,150.1875 17.3025,138.4425 21.915,135.2025 L22.1625,135.5625 C17.7525,138.6675 17.46,150.5475 17.46,150.6825 Z" id="Path" fill="#322864"></path>
                <circle id="Oval" fill="#01C4B9" cx="25.425" cy="113.4225" r="2.25"></circle>
                <circle id="Oval" fill="#01C4B9" cx="24.3" cy="132.7725" r="2.25"></circle>
                <path d="M16.4025,117.0225 C16.83,119.7225 15.7275,122.13 15.7275,122.13 C15.7275,122.13 13.95,120.1725 13.5225,117.4725 C13.095,114.7725 14.1975,112.365 14.1975,112.365 C14.1975,112.365 15.9975,114.3225 16.4025,117.0225 Z" id="Path" fill="#057387"></path>
                <path d="M23.76,123.5925 C21.1725,124.47 18.6075,123.8175 18.6075,123.8175 C18.6075,123.8175 20.2275,121.725 22.815,120.825 C25.4025,119.925 27.9675,120.6 27.9675,120.6 C27.9675,120.6 26.3475,122.6925 23.76,123.5925 Z" id="Path" fill="#057387"></path>
                <path d="M23.85,140.715 C22.68,141.075 21.4425,141.1425 20.2275,140.8725 C21.78,138.8925 24.345,138.015 26.7975,138.6225 C26.01,139.5675 24.9975,140.2875 23.85,140.715 Z" id="Path" fill="#057387"></path>
                <g id="Group-3" transform="translate(54.675000, 56.940299)">
                    <ellipse id="Oval" fill="#89A0D8" cx="58.275" cy="100.919701" rx="58.275" ry="7.3125"></ellipse>
                    <path d="M73.5975,8.26470124 C68.94,0.389701236 59.7375,0.029701236 59.7375,0.029701236 C59.7375,0.029701236 50.76,-1.11779876 45,10.8522012 C39.645,22.0122012 32.22,32.7897012 43.8075,35.3997012 L45.9,28.8972012 L47.205,35.8947012 C48.8475,36.0072012 50.5125,36.0522012 52.155,35.9847012 C64.5525,35.5797012 76.365,36.0972012 75.9825,31.6422012 C75.4875,25.7472012 78.075,15.8472012 73.5975,8.26470124 Z" id="Path" stroke="#322864" stroke-width="0.9" fill="#322864"></path>
                    <path d="M43.155,77.1372012 C43.02,77.9922012 42.8175,78.8472012 42.57,79.7022012 C42.2775,80.5122012 41.8275,81.2772012 41.5575,82.1097012 C40.7025,84.7422012 41.895,87.6897012 43.7625,89.7147012 C45.3825,91.4697012 47.4975,92.7297012 49.815,93.3147012 C51.5025,93.7422012 53.28,93.8097012 55.0125,93.8547012 C59.85,94.0122012 64.8225,94.1697012 69.39,92.6172012 C70.83,92.1222012 72.2475,91.4697012 73.575,90.7272012 C74.0025,90.5247012 74.3625,90.2322012 74.655,89.8722012 C75.015,89.3772012 75.06,88.7247012 75.0375,88.1172012 C75.0375,86.0697012 74.61,84.0222012 74.7,81.9747012 C74.745,80.8497012 74.97,79.7022012 74.8575,78.5772012 C74.565,75.9447012 72.6525,73.7847012 70.065,73.1772012 C68.76,72.9072012 67.41,73.0422012 66.0825,73.1772012 C62.64,73.5147012 59.1975,73.6722012 55.7325,73.6497012 C52.2,73.6272012 48.69,73.0872012 45.18,73.0422012 C44.145,73.0197012 44.1675,73.3347012 43.83,74.3472012 C43.605,75.2472012 43.3575,76.1922012 43.155,77.1372012 Z" id="Path" stroke="#322864" stroke-width="0.9" fill="#3D57A6"></path>
                    <path d="M53.1675,26.4897012 C52.9875,27.3672012 52.8075,28.2897012 52.29,29.0322012 C51.6825,29.8647012 50.67,30.3597012 50.0175,31.1472012 C49.0275,32.3622012 48.96,34.0497012 48.96,35.6247012 C48.96,37.0647012 48.9825,38.5947012 49.7925,39.8097012 C50.31,40.5972012 51.0975,41.1372012 51.885,41.6547012 C54.9,43.6797012 58.1625,45.7497012 61.785,45.8172012 C63.2925,45.8397012 64.9125,45.4572012 65.9025,44.3322012 C66.33,43.7922012 66.6675,43.2072012 66.8925,42.5547012 C67.815,40.2597012 68.3775,37.8297012 68.5575,35.3772012 C68.6475,34.2072012 68.625,33.0147012 68.2425,31.9347012 C67.7925,30.6972012 66.915,29.6847012 66.3075,28.5147012 C65.61,27.1197012 65.3625,25.5672012 65.5875,24.0147012 C65.61,23.9022012 65.61,23.7897012 65.565,23.6997012 C65.475,23.5872012 65.3175,23.5197012 65.1825,23.5422012 L57.9825,23.0247012 C57.3075,23.0022012 56.6325,22.9122012 55.98,22.7997012 C55.5975,22.7097012 54.5625,22.1697012 54.2025,22.3047012 C53.505,22.5747012 53.325,25.7697012 53.1675,26.4897012 Z" id="Path" fill="#F6B78C"></path>
                    <circle id="Oval" stroke="#322864" stroke-width="0.9" fill="#F6B78C" cx="60.075" cy="16.8822012" r="10.575"></circle>
                    <path d="M54.6525,40.5747012 C55.1925,41.1597012 55.7775,41.7222012 56.52,42.0597012 C57.2625,42.3747012 58.05,42.5097012 58.8375,42.5097012 C60.75,42.5547012 62.82,42.2172012 64.1475,40.8447012 C65.8575,39.0672012 65.79,36.2322012 67.14,34.1622012 C67.2525,33.9822012 67.3875,33.8247012 67.5675,33.6897012 C67.7925,33.5772012 68.04,33.5093626 68.31,33.5093626 C69.9975,33.4872012 71.4825,34.5897012 72.81,35.6472012 C73.395,36.1197012 74.025,36.5922012 74.385,37.2672012 C74.655,37.7847012 74.835,38.3247012 74.925,38.9097012 C75.5775,42.1272012 75.8025,45.4347012 76.005,48.7197012 C76.1175,50.5422012 76.23,52.3422012 76.23,54.1647012 C76.2075,60.1497012 74.8125,66.0447012 73.4175,71.8722012 C73.2375,72.6147012 72.99,73.4697012 72.315,73.8297012 C72,73.9647012 71.685,74.0547012 71.3475,74.0547012 C67.3875,74.5272012 63.405,74.9772012 59.4225,75.0447012 C57.87,75.0672012 56.3175,75.0222012 54.7425,74.9322012 C54.4725,74.9322012 54.2025,74.8872012 53.955,74.7972012 C53.6175,74.6397012 53.325,74.3922012 53.1,74.0772012 C50.94,71.3547012 50.805,67.5972012 50.8275,64.1322012 C50.85,55.6497012 51.165,47.1672012 51.7275,38.6847012 C51.7725,37.9872012 51.795,37.1322012 51.2775,36.5922012 C52.2,37.9872012 53.46,39.3372012 54.6525,40.5747012 Z" id="Path" stroke="#322864" stroke-width="0.9" fill="#F2F4F9"></path>
                    <path d="M52.425,28.3572012 C53.685,26.0622012 52.4025,28.3347012 52.1775,31.3722012 C51.975,34.3647012 52.605,36.9972012 53.9325,39.6972012 C54.6075,41.0472012 55.4175,42.3747012 55.7325,43.8597012 C55.9575,44.9847012 55.935,46.1547012 55.89,47.3022012 C55.71,52.8372012 55.755,58.3722012 55.98,63.9072012 C56.025,65.1447012 56.0925,66.3822012 56.25,67.5972012 C56.4075,68.7897012 56.6775,69.9597012 56.61,71.1522012 C56.5425,72.3447012 56.16,73.5822012 55.2375,74.3472012 C54.09,75.3147012 52.425,75.2922012 50.9175,75.2247012 C49.2075,75.1797012 47.4975,75.0222012 45.81,74.7747012 C44.4825,74.5497012 43.11,74.1447012 42.2325,73.1322012 C41.04,71.7597012 41.13,69.6897012 41.6475,67.9347012 C41.9478706,66.916053 42.3695234,65.9353054 42.705672,64.9352622 C41.0344761,65.092329 39.5113735,66.1548619 38.835,67.8222012 C37.8225,65.8197012 36.7875,63.7272012 36.855,61.4997012 C36.8775,60.0822012 37.3725,58.7097012 37.44,57.2922012 C37.5075,56.2797012 37.3275,55.2447012 36.9675,54.2997012 C36.6975,53.6247012 36.3375,52.9722012 36.1125,52.2747012 C35.7525,51.1947012 35.775,50.0472012 35.775,48.8997012 C35.7525,48.1347012 35.82,47.3922012 35.9775,46.6497012 C36.041457,46.4009795 36.1250529,46.1601134 36.2232369,45.9250647 C35.9324841,44.3893205 36.1804891,42.7501088 36.5625,41.2047012 C36.9,39.7872012 37.3725,38.3697012 38.295,37.2447012 C40.8825,34.0272012 46.08,34.1397012 48.915,31.1472012 C49.4325,30.6072012 52.065,29.0097012 52.425,28.3572012 Z" id="Combined-Shape" stroke="#322864" stroke-width="0.9" fill="#01C4B9" stroke-linejoin="round"></path>
                    <path d="M67.275,28.5822012 C67.815,29.1447012 69.66,29.3247012 70.3575,29.6847012 C71.01,29.9772012 71.685,30.2247012 72.3825,30.3822012 C74.9025,31.1022012 77.31,32.2047012 79.515,33.6447012 C79.965,33.9147012 80.37,34.2522012 80.7075,34.6797012 C81.09,35.2197012 81.225,35.8947012 81.36,36.5472012 L81.373756,36.6152218 C81.7528061,37.1635807 82.0372915,37.7101065 82.17,38.1222012 C82.5075,39.1572012 82.53,40.2822012 82.53,41.3847012 C82.5525,43.6122012 82.5075,45.8622012 82.44,48.0897012 C82.395,49.2372012 82.35,50.3847012 82.0125,51.4872012 C81.7875,52.2072012 81.4275,52.8822012 81.2025,53.6022012 C80.505,55.7622012 80.8875,58.0797012 80.9325,60.3522012 C80.9775,61.0947012 80.91,61.8147012 80.7525,62.5347012 C80.37,63.9297012 79.38,65.0772012 78.6825,66.3372012 C78.0075,67.5522012 77.625,68.9022012 76.815,70.0272012 C76.3963782,70.6086204 75.8275127,71.1299422 75.1922639,71.4482932 C75.2055825,73.1728212 75.3461645,74.8977381 75.6225,76.5972012 C75.6675,76.8672012 75.7125,77.2047012 75.51,77.4072012 C75.375,77.5422012 75.195,77.6097012 75.015,77.6322012 C74.0475,77.7897012 73.08,77.2947012 72.2025,76.8447012 C69.5025,75.4947012 66.6,74.5497012 63.6075,74.0322012 C64.7775,72.3447012 65.6775,70.4997012 66.285,68.5422012 C66.6225,67.3047012 66.8925,66.0447012 67.095,64.7622012 L68.04,59.3172012 C68.4225,57.3147012 68.6925,55.3122012 68.85,53.2872012 C68.9175,52.5222012 68.8725,51.7572012 68.715,51.0147012 C68.49,50.2947012 68.22,49.6197012 67.86,48.9672012 C66.3075,45.7272012 65.565,42.0372012 66.195,38.5047012 C66.465,36.9522012 66.9825,35.3997012 66.7575,33.8472012 C66.555,32.3622012 66.7575,31.1922012 66.375,29.7072012 C64.8,23.6322012 66.24,27.5472012 67.275,28.5822012 Z" id="Combined-Shape" stroke="#322864" stroke-width="0.9" fill="#01C4B9" stroke-linejoin="round"></path>
                    <path d="M29.3625,75.4722012 C28.4175,75.2247012 27.4275,75.1347012 26.46,75.1572012 C22.455,75.3822012 19.395,78.8022012 19.62,82.7847012 C19.6425,83.0997012 19.665,83.3922012 19.7325,83.6847012 C19.98,84.7872012 20.3625,85.8447012 20.88,86.8347012 C21.645,88.3872012 22.5675,89.9622012 24.0075,90.9522012 C24.84,91.5372012 25.8075,91.8972012 26.7525,92.2572012 L34.2675,95.0922012 C35.37,95.4972012 36.4725,95.9247012 37.5975,96.3072012 C43.2,98.2422012 49.05,99.4122012 54.9675,99.7497012 C56.7675,99.8622012 58.59,99.8847012 60.3675,99.4797012 C60.795,99.3897012 61.2225,99.2322012 61.47,98.8722012 C61.605,98.6247012 61.695,98.3547012 61.7175,98.0622012 L62.19,94.8222012 C62.2575,94.3722012 62.325,93.8772012 62.145,93.4497012 C61.9425,92.9097012 61.4025,92.5722012 60.9075,92.2797012 C55.98,89.4447012 50.1975,87.8697012 46.0575,83.9997012 C45.09,83.0772012 44.2575,81.6372012 43.065,81.0072012 C41.715,80.3097012 40.14,79.9047012 38.745,79.2522012 C35.6625,77.8572012 32.67,76.2372012 29.3625,75.4722012 Z" id="Path" stroke="#322864" stroke-width="0.9" fill="#3D57A6"></path>
                    <path d="M69.975,101.459701 C70.1325,101.459701 70.2675,101.437201 70.4025,101.324701 C70.515,101.189701 70.56,101.009701 70.5375,100.829701 C70.5375,99.3672012 70.5375,97.8822012 70.515,96.4197012 C69.255,95.8122012 67.8375,95.6322012 66.4425,95.4297012 L59.9625,94.5522012 C60.12,94.5747012 58.95,97.3422012 59.13,97.7247012 C59.445,98.3772012 61.8525,98.9622012 62.5275,99.2547012 C64.8675,100.379701 67.32,101.549701 69.975,101.459701 Z" id="Path" stroke="#322864" stroke-width="0.9" fill="#FFB8B8"></path>
                    <path d="M49.6125,96.4422012 C48.3975,96.6447012 47.025,96.8022012 46.215,97.7697012 C45.2025,98.9847012 45.63,100.784701 46.125,102.292201 C46.1925,102.584701 46.35,102.877201 46.5525,103.102201 C46.89,103.417201 47.385,103.462201 47.835,103.507201 C48.96,103.574701 50.1525,103.642201 51.12,103.079701 C51.57,102.787201 51.9975,102.472201 52.4025,102.134701 C53.1225,101.662201 53.91,101.302201 54.7425,101.054701 C56.2725,100.582201 57.8475,100.244701 59.445,100.087201 C60.075,100.064701 60.705,99.9522012 61.29,99.7497012 C61.875,99.5247012 62.415,99.0972012 62.595,98.4897012 C62.82,97.6797012 62.3475,96.8697012 61.92,96.1722012 C61.3575,95.2947012 60.7725,94.3722012 59.94,93.7422012 C58.725,92.7972012 58.14,93.5172012 56.925,94.1247012 C54.6075,95.2497012 52.155,96.0372012 49.6125,96.4422012 Z" id="Path" stroke="#322864" stroke-width="0.9" fill="#F6B78C"></path>
                    <path d="M46.395,97.5447012 L38.61,95.2497012 C37.665,94.9797012 36.6975,94.6872012 35.7075,94.6872012 C34.7175,94.6872012 33.6825,95.0022012 33.0525,95.7672012 C32.445,96.4647012 32.2875,97.4322012 32.13,98.3547012 L31.815,100.312201 C31.6575,101.302201 31.4775,102.337201 31.635,103.327201 C31.7925,104.317201 32.2875,105.329701 33.1875,105.802201 C34.2675,106.387201 35.595,106.094701 36.7875,105.847201 C39.2175,105.352201 41.6925,105.082201 44.1675,105.059701 C45.09,105.059701 46.08,105.059701 46.89,104.632201 C47.8575,104.114701 48.4425,103.012201 48.555,101.909701 C48.7125,100.244701 48.15,98.0622012 46.395,97.5447012 Z" id="Path" stroke="#322864" stroke-width="0.9" fill="#322864"></path>
                    <path d="M73.035,95.5422012 C74.0475,95.3622012 74.925,94.7997012 75.8925,94.4622012 C77.2425,93.9897012 78.7275,93.9897012 80.1675,93.9897012 C80.7075,93.9897012 81.27,94.0122012 81.6975,94.3047012 C82.3275,94.7322012 82.485,95.5647012 82.5975,96.3297012 L83.25,100.874701 C83.3625,101.729701 83.4975,102.607201 83.295,103.462201 C83.0925,104.317201 82.53,105.127201 81.6975,105.329701 C80.685,105.599701 79.6725,104.947201 78.7275,104.519701 C76.32,103.462201 73.53,103.732201 71.0325,102.922201 C70.56,102.764701 70.065,102.539701 69.885,102.089701 C69.795,101.842201 69.7725,101.572201 69.795,101.302201 C69.84,99.8397012 69.525,97.8372012 69.975,96.4422012 C70.3575,95.1822012 71.91,95.5422012 73.035,95.5422012 Z" id="Path" fill="#322864"></path>
                    <path d="M89.505,73.6497012 C91.0575,73.2672012 92.6775,73.1547012 94.275,73.3347012 C95.5575,73.4697012 96.8625,73.8297012 97.785,74.7072012 C98.91,75.7872012 99.27,77.4297012 99.315,79.0047012 C99.36,82.1097012 98.325,85.1247012 96.4125,87.5547012 C95.94,88.1622012 95.3775,88.7022012 94.7475,89.1522012 C94.0725,89.5797012 93.33,89.9397012 92.5875,90.1872012 L75.78,96.8247012 C71.3475,98.5797012 66.915,100.312201 62.3025,101.459701 C61.785,101.707201 61.155,101.482201 60.9075,100.964701 C60.9075,100.964701 60.9075,100.942201 60.9075,100.942201 C59.445,98.8272012 58.2075,96.5772012 57.2175,94.1922012 C57.06,93.9897012 57.0825,93.7197012 57.285,93.5622012 C57.33,93.5397012 57.375,93.4947012 57.42,93.4947012 L69.3225,86.6547012 C70.1775,86.1597012 71.0325,85.6647012 71.7525,84.9897012 C72.27,84.4947012 76.77,80.1297012 77.445,79.8372012 C80.1,78.6447012 82.485,76.9122012 85.0275,75.5172012 C86.3775,74.7072012 87.9075,74.0772012 89.505,73.6497012 Z" id="Path" stroke="#322864" stroke-width="0.9" fill="#3D57A6"></path>
                    <polyline id="Path" fill="#322864" points="71.55 7.52220124 62.46 2.75220124 49.8825 4.70970124 47.295 16.1847012 53.7525 15.9372012 55.575 11.7072012 55.575 15.8697012 58.545 15.7572012 60.2775 9.02970124 61.3575 16.1847012 71.9775 15.9597012"></polyline>
                    <polyline id="Path" stroke="#322864" stroke-width="0.9" points="47.295 16.1847012 53.7525 15.9372012 55.575 11.7072012 55.575 15.8697012 58.545 15.7572012 60.2775 9.02970124 61.3575 16.1847012 71.9775 15.9597012"></polyline>
                    <rect id="Rectangle" stroke="#322864" stroke-width="0.9" fill="#FF500A" x="49.95" y="31.0572012" width="19.575" height="23.625"></rect>
                    <path d="M40.6575,72.1647012 C41.1075,72.8397012 41.625,73.4922012 42.345,73.8522012 C43.2675,74.2797012 44.3475,74.2572012 45.27,73.7847012 C46.17,73.3122012 46.89,72.5697012 47.385,71.6697012 C48.375,69.9147012 48.5775,67.8447012 48.465,65.8422012 C48.3525,63.8397012 47.925,61.8597012 47.7225,59.8797012 C47.5875,58.4172012 47.565,56.9772012 47.565,55.5147012 C47.52,55.1997012 47.5875,54.9072012 47.745,54.6372012 C47.97,54.3447012 48.375,54.2547012 48.7125,54.1422012 C50.715,53.5572012 52.0425,51.6897012 52.9875,49.8222012 C53.6175,48.5847012 54.18,47.2347012 54.045,45.8397012 C53.91,44.4447012 52.92,43.0497012 51.5475,42.9147012 C50.4,42.8022012 49.365,43.5222012 48.5325,44.3097012 C46.4625,46.3347012 45.135,48.9897012 44.7525,51.8697012 C44.5725,53.2872012 44.6175,54.7272012 44.235,56.0997012 C43.425,59.0247012 40.86,60.8022012 39.5775,63.4347012 C38.16,66.3147012 38.9475,69.5997012 40.6575,72.1647012 Z" id="Path" stroke="#322864" stroke-width="0.9" fill="#F6B78C" stroke-linejoin="round"></path>
                    <path d="M78.3,61.0047012 C77.715,62.3772012 76.59,63.4347012 75.2175,63.9747012 C74.3625,64.3122012 73.4175,64.3797012 72.54,64.1322012 C71.64,63.8847012 70.92,63.2322012 70.56,62.3772012 C70.425,61.9497012 70.3575,61.4997012 70.335,61.0497012 C70.2,59.0922012 70.2675,57.0447012 70.965,55.2222012 C71.235,54.5022012 71.6175,53.8497012 71.82,53.1072012 C72.045,52.2747012 72.135,51.3972012 72.135,50.5422012 L72.36,45.1647012 C72.405,44.7822012 72.3825,44.3772012 72.27,43.9947012 C72.045,43.2072012 71.3025,42.7122012 70.65,42.2397012 C69.03,41.1147012 67.455,39.8097012 66.6675,38.0097012 C66.3975,37.4697012 66.3075,36.8622012 66.3975,36.2547012 C66.6225,35.1972012 67.7025,34.4997012 68.76,34.2747012 C71.6175,33.6447012 74.43,35.4447012 75.0375,38.3022012 C75.06,38.3697012 75.06,38.4597012 75.0825,38.5272012 C75.195,39.1347012 75.195,39.7422012 75.24,40.3722012 C75.375,41.6772012 75.78,42.9147012 76.05,44.1972012 C76.68,47.3472012 76.365,50.6097012 76.995,53.7597012 C77.535,56.4147012 79.515,58.1247012 78.3,61.0047012 Z" id="Path" stroke="#322864" stroke-width="0.9" fill="#F6B78C" stroke-linejoin="round"></path>
                    <path d="M36.855,80.7372012 C39.51,81.5697012 50.715,87.3297012 52.6275,89.3322012 C52.38,89.4222012 43.6275,84.5397012 43.38,84.4497012 C40.995,83.7297012 38.61,83.0097012 36.3375,81.9747012 C35.8875,81.7722012 33.39,80.7822012 33.5025,80.1972012 C33.6375,79.5672012 36.3825,80.5797012 36.855,80.7372012 Z" id="Path" fill="#2B4497"></path>
                </g>
            </g>
        </g>
    </g>
</svg>